<svg xmlns="http://www.w3.org/2000/svg" x="0px" y="0px" width="50" height="50" viewBox="0 0 512 512">
    <path fill="#A2D4DE"
        d="M504.1,256c0,137-111.1,248.1-248.1,248.1C119,504.1,7.9,393,7.9,256C7.9,119,119,7.9,256,7.9C393,7.9,504.1,119,504.1,256">
    </path>
    <path fill="#282821"
        d="M379,263.1c0-36.3-14-68.1-35.1-85.7c-18-40.8-50.7-68-88-68c-37.3,0-70,27.2-88,68C147,195,133,226.8,133,263.1c0,49.4,26.1,90.6,60.4,98.9c17.3,18.3,39.1,29.2,62.6,29.2c23.6,0,45.3-10.9,62.6-29.2C353,353.6,379,312.5,379,263.1">
    </path>
    <path fill="#282821"
        d="M379,263.1c0-36.3-14-68.1-35.1-85.7c-18-40.8-50.7-68-88-68c-37.3,0-70,27.2-88,68C147,195,133,226.8,133,263.1c0,49.4,26.1,90.6,60.4,98.9c17.3,18.3,39.1,29.2,62.6,29.2c23.6,0,45.3-10.9,62.6-29.2C353,353.6,379,312.5,379,263.1">
    </path>
    <path fill="#FCFDFF"
        d="M256 187.8c-44.5 0-80.5 48.2-80.5 107.8 0 24.9 6.3 47.8 16.9 66.1.3.1.6.2.9.3 17.3 18.3 39.1 29.2 62.6 29.2 23.6 0 45.3-10.9 62.6-29.2.3-.1.6-.2.9-.3 10.6-18.3 17-41.2 17-66.1C336.5 236.1 300.5 187.8 256 187.8M272.8 133.6c-6.6 0-12.6 2.8-16.8 7.3-4.2-4.5-10.2-7.3-16.9-7.3-12.8 0-23.2 10.4-23.2 23.2 0 12.8 10.4 23.2 23.2 23.2 6.6 0 12.6-2.8 16.9-7.3 4.2 4.5 10.2 7.3 16.8 7.3 12.8 0 23.2-10.4 23.2-23.2C296.1 144 285.7 133.6 272.8 133.6">
    </path>
    <path fill="#F37920"
        d="M262.9,201.2c-1.6,1.8-4.6,2-6.9,2.1c-2.3-0.1-5.3-0.3-6.9-2.1c-4.9-6.8-9.8-13.5-14.7-20.2c-1.8-1.6,7-11.4,21.6-11.4c14.6,0,23.4,9.7,21.6,11.4C272.7,187.8,267.8,194.5,262.9,201.2">
    </path>
    <path fill="#282821"
        d="M252.4 161.2c0 4.1-3.3 7.5-7.5 7.5-4.1 0-7.4-3.3-7.4-7.5 0-4.1 3.3-7.5 7.4-7.5C249.1 153.8 252.4 157.1 252.4 161.2M274.5 161.2c0 4.1-3.3 7.5-7.5 7.5-4.1 0-7.5-3.3-7.5-7.5 0-4.1 3.3-7.5 7.5-7.5C271.2 153.8 274.5 157.1 274.5 161.2">
    </path>
    <path fill="#F37920"
        d="M233.8 392.9c0 5.4-4.4 9.7-9.7 9.7-5.4 0-9.7-4.4-9.7-9.7v-25.7c0-5.4 4.4-9.7 9.7-9.7 5.4 0 9.7 4.4 9.7 9.7V392.9zM214.4 389.5c0 4.9-3.9 8.8-8.8 8.8-4.9 0-8.8-3.9-8.8-8.8v-23.2c0-4.9 3.9-8.8 8.8-8.8 4.9 0 8.8 3.9 8.8 8.8V389.5z">
    </path>
    <path fill="#F37920"
        d="M196.8 386.1c0 4.3-3.5 7.9-7.9 7.9-4.3 0-7.9-3.5-7.9-7.9v-20.7c0-4.3 3.5-7.9 7.9-7.9 4.3 0 7.9 3.5 7.9 7.9V386.1zM278.2 392.9c0 5.4 4.4 9.7 9.7 9.7s9.7-4.4 9.7-9.7v-25.7c0-5.4-4.4-9.7-9.7-9.7s-9.7 4.4-9.7 9.7V392.9zM297.6 389.5c0 4.9 3.9 8.8 8.8 8.8s8.8-3.9 8.8-8.8v-23.2c0-4.9-3.9-8.8-8.8-8.8s-8.8 3.9-8.8 8.8V389.5z">
    </path>
    <path fill="#F37920"
        d="M315.2,386.1c0,4.3,3.5,7.9,7.9,7.9c4.3,0,7.9-3.5,7.9-7.9v-20.7c0-4.3-3.5-7.8-7.9-7.8c-4.3,0-7.9,3.5-7.9,7.8V386.1z">
    </path>
</svg>